<svg width="9" height="9" viewBox="0 0 9 9" fill="none" xmlns="http://www.w3.org/2000/svg">
<mask id="mask0_141_28479" style="mask-type:luminance" maskUnits="userSpaceOnUse" x="0" y="0" width="9" height="9">
<path d="M8.90368 0.125488H0.825684V8.20449H8.90368V0.125488Z" fill="white"/>
</mask>
<g mask="url(#mask0_141_28479)">
<path d="M4.62562 8.20451C4.46962 8.18351 4.31262 8.17052 4.15862 8.14052C3.55353 8.03783 2.98044 7.79642 2.48425 7.43521C1.98806 7.074 1.58225 6.60279 1.29862 6.05852C0.92509 5.37565 0.765515 4.59624 0.840624 3.82152C0.888954 3.24099 1.0648 2.67828 1.35562 2.17352C1.36962 2.14952 1.40062 2.13552 1.42362 2.11752C1.42362 2.11752 1.43362 2.11752 1.43862 2.11752C1.50626 2.10046 1.57514 2.08875 1.64462 2.08252L1.38162 2.29352C1.48575 2.38691 1.61808 2.44288 1.75762 2.45252C2.05154 2.44402 2.34393 2.40684 2.63062 2.34152C2.66038 2.33056 2.69322 2.33151 2.72228 2.34418C2.75135 2.35685 2.7744 2.38027 2.78662 2.40952C2.89162 2.59452 3.00962 2.77252 3.11762 2.95552C3.14074 2.99545 3.15379 3.04041 3.15562 3.08652C3.15562 3.25252 3.15562 3.41752 3.15562 3.58652C3.15743 3.63474 3.17267 3.6815 3.19962 3.72152C3.35962 3.94652 3.52662 4.16652 3.68762 4.38952C3.70011 4.4147 3.72201 4.43396 3.74858 4.44313C3.77515 4.4523 3.80426 4.45064 3.82962 4.43852V4.19852H3.84662C3.90362 4.31752 3.96462 4.43552 4.01762 4.55752C4.02607 4.58174 4.04096 4.6032 4.06069 4.61959C4.08043 4.63598 4.10426 4.64667 4.12962 4.65052C4.30462 4.68652 4.47862 4.72452 4.65162 4.76752C4.69889 4.77975 4.74226 4.80384 4.77762 4.83752C4.92462 4.98252 5.05362 5.15352 5.30462 5.15352C5.25162 5.26552 5.20462 5.35352 5.16462 5.44852C5.12462 5.54352 5.04162 5.63952 5.04362 5.73352C5.0648 5.83368 5.11089 5.92688 5.17762 6.00452C5.3285 6.2873 5.43763 6.59046 5.50162 6.90453C5.50594 6.9303 5.50388 6.95673 5.49562 6.98152C5.45462 7.15252 5.42262 7.32652 5.36762 7.49352C5.32756 7.67561 5.32315 7.86374 5.35462 8.04752C5.35462 8.08652 5.36062 8.12453 5.36362 8.16753L5.06362 8.20552L4.62562 8.20451Z" fill="#F7F7F7"/>
<path d="M8.90352 4.33847C8.88352 4.51047 8.87152 4.68347 8.84152 4.85347C8.70769 5.61771 8.35679 6.32729 7.83069 6.89754C7.30459 7.46779 6.62552 7.87462 5.87453 8.06948L5.81653 8.08247C5.85753 7.95147 5.85752 7.82147 5.99852 7.74147C6.17717 7.63557 6.3504 7.52076 6.51753 7.39748C6.5561 7.36825 6.58613 7.32924 6.60452 7.28448C6.65452 7.16648 6.69253 7.04248 6.74153 6.92448C6.75739 6.88777 6.78476 6.85723 6.81952 6.83747C6.94052 6.77548 7.06653 6.72148 7.18953 6.66248C7.21584 6.65192 7.23846 6.63383 7.25453 6.61047C7.40153 6.33447 7.54552 6.05747 7.69252 5.77647C7.67052 5.76147 7.65252 5.74848 7.63252 5.73648C7.55552 5.69048 7.48152 5.63647 7.40152 5.60147C7.11514 5.46136 6.86576 5.25582 6.67352 5.00148C6.64141 4.96947 6.60021 4.94816 6.55553 4.94048C6.44653 4.91348 6.33453 4.89448 6.22453 4.87148C6.03453 4.83248 5.84552 4.78348 5.65352 4.75748C5.57252 4.75498 5.49205 4.77142 5.41852 4.80548C5.4008 4.81624 5.38106 4.82322 5.36052 4.82596C5.33997 4.82871 5.31908 4.82717 5.29916 4.82143C5.27924 4.8157 5.26072 4.80591 5.24478 4.79266C5.22884 4.77941 5.21581 4.76301 5.20653 4.74448C5.17244 4.69179 5.12643 4.64787 5.07224 4.61625C5.01804 4.58464 4.95717 4.56622 4.89453 4.56248L4.90953 4.27048C4.83802 4.24661 4.76014 4.25053 4.69139 4.28148C4.62264 4.31242 4.56807 4.36812 4.53853 4.43748L4.45752 4.09647C4.55752 4.04947 4.64953 4.00348 4.74553 3.96148C4.76752 3.9553 4.79101 3.95744 4.81152 3.96748C4.88652 3.99948 4.95753 4.04247 5.03453 4.06747C5.09988 4.08457 5.167 4.09396 5.23453 4.09547C5.24365 4.09358 5.25212 4.08937 5.25912 4.08324C5.26613 4.0771 5.27144 4.06926 5.27452 4.06047C5.29152 3.84947 5.44353 3.72047 5.55753 3.56047C5.7069 3.34652 5.91541 3.18076 6.15753 3.08348C6.26353 3.02129 6.37541 2.96971 6.49153 2.92947C6.61404 2.92524 6.73654 2.93803 6.85553 2.96748C6.92253 2.83848 6.91653 2.79248 6.82253 2.69648C6.76953 2.64248 6.72253 2.58447 6.66153 2.53347C6.49095 2.38809 6.35873 2.20299 6.27652 1.99448C6.2706 1.97182 6.25618 1.95232 6.23625 1.94003C6.21632 1.92774 6.19243 1.9236 6.16953 1.92847C6.05256 1.93584 5.93594 1.90946 5.83353 1.85247C5.71309 1.81206 5.58817 1.78654 5.46153 1.77647L5.38353 2.20148C5.24753 2.17548 5.11652 2.15247 4.98352 2.12447C4.96652 2.12447 4.94753 2.08847 4.94553 2.06747C4.93953 1.99647 4.91553 1.91047 4.94553 1.85847C4.97553 1.80647 5.06453 1.81847 5.12953 1.81047C5.14879 1.81061 5.16787 1.80693 5.1857 1.79965C5.20353 1.79237 5.21975 1.78164 5.23341 1.76807C5.24708 1.7545 5.25792 1.73836 5.26532 1.72058C5.27272 1.7028 5.27652 1.68373 5.27652 1.66447C5.29352 1.54847 5.32753 1.43448 5.35753 1.30848C5.45753 1.35148 5.56353 1.38947 5.65753 1.43647C5.67353 1.44447 5.68153 1.49247 5.67653 1.51847C5.66967 1.53738 5.6673 1.55761 5.66959 1.57759C5.67187 1.59757 5.67876 1.61674 5.68971 1.63361C5.70066 1.65047 5.71538 1.66456 5.7327 1.67478C5.75002 1.68499 5.76946 1.69105 5.78952 1.69247C5.82452 1.70213 5.85813 1.71624 5.88953 1.73447C5.95144 1.7726 6.02466 1.78805 6.09669 1.77821C6.16873 1.76836 6.23512 1.73382 6.28453 1.68048C6.21853 1.60448 6.15152 1.52347 6.08452 1.44847C6.00483 1.36083 5.91967 1.27833 5.82953 1.20148C5.79039 1.17156 5.76215 1.12964 5.74915 1.08213C5.73614 1.03462 5.73908 0.984152 5.75752 0.938477C5.91652 0.991477 6.08552 0.975476 6.23552 1.09848C6.41864 1.25294 6.54499 1.46409 6.59453 1.69847C6.61062 1.7648 6.64782 1.82411 6.70053 1.86747C6.82053 1.96747 6.93353 2.08048 7.05353 2.18248C7.1176 2.23151 7.18437 2.27691 7.25352 2.31847C7.31152 2.22747 7.36153 2.15348 7.40553 2.07648C7.41635 2.05437 7.43311 2.03572 7.45396 2.02264C7.47482 2.00957 7.49892 2.00258 7.52353 2.00248C7.70153 1.99048 7.87953 1.97247 8.05753 1.95647C8.07051 1.95722 8.08354 1.95722 8.09653 1.95647C8.21753 1.93147 8.21753 1.93147 8.28453 2.03947C8.6368 2.60071 8.84305 3.24115 8.88452 3.90248C8.88452 3.92848 8.89253 3.95348 8.89653 3.97948L8.90352 4.33847Z" fill="#F7F7F7"/>
<path d="M1.7627 1.58833C2.32791 0.900542 3.10641 0.420955 3.97493 0.225516C4.84344 0.0300767 5.75234 0.129954 6.5577 0.509334C6.43828 0.540388 6.31235 0.535518 6.19569 0.495334C6.14805 0.484738 6.0987 0.484431 6.05093 0.494433C6.00317 0.504435 5.95808 0.524516 5.91869 0.553334C5.80368 0.634381 5.69892 0.729072 5.60669 0.835334C5.58016 0.8626 5.54462 0.879302 5.50669 0.882334C5.30669 0.905334 5.1067 0.930334 4.9067 0.940334C4.80587 0.939914 4.70534 0.929192 4.60669 0.908334C4.58967 0.902546 4.57109 0.903339 4.55462 0.910556C4.53815 0.917774 4.52498 0.930893 4.5177 0.947334C4.4757 1.02033 4.42469 1.08733 4.38369 1.16133C4.37316 1.18215 4.35673 1.19941 4.33646 1.21097C4.3162 1.22252 4.29298 1.22787 4.2697 1.22633C4.1097 1.23233 3.9487 1.25233 3.7897 1.24533C3.68044 1.2331 3.57302 1.20792 3.4697 1.17033C3.44217 1.15864 3.41211 1.15416 3.38236 1.15731C3.35262 1.16046 3.32417 1.17114 3.29969 1.18833C3.12892 1.30297 2.92928 1.36709 2.72369 1.37333C2.42581 1.40526 2.13237 1.46998 1.84869 1.56633L1.76669 1.58933M5.7067 0.452334C5.6207 0.402334 5.5467 0.358334 5.4707 0.317334C5.46174 0.313273 5.45203 0.311173 5.4422 0.311173C5.43237 0.311173 5.42265 0.313273 5.4137 0.317334C5.2087 0.431334 5.0037 0.547334 4.7907 0.667334C4.8807 0.739334 4.9557 0.799334 5.0687 0.773334C5.16178 0.768344 5.25385 0.751543 5.34269 0.723334C5.47036 0.641829 5.59201 0.551263 5.7067 0.452334ZM3.8327 0.561334L3.55569 0.776334C3.58583 0.790934 3.61491 0.807642 3.6427 0.826334C3.69144 0.869927 3.75184 0.898351 3.81649 0.90812C3.88115 0.91789 3.94725 0.90858 4.00669 0.881334C4.11969 0.839334 4.24069 0.816334 4.36269 0.781334C4.32569 0.717334 4.2927 0.664334 4.2627 0.608334C4.2417 0.567334 4.21869 0.556334 4.17569 0.576334C4.12337 0.608497 4.06258 0.624171 4.00123 0.621318C3.93988 0.618464 3.88081 0.597215 3.8317 0.560334" fill="#F7F7F7"/>
</g>
</svg>
