<svg width="9" height="9" viewBox="0 0 9 9" fill="none" xmlns="http://www.w3.org/2000/svg">
<mask id="mask0_141_28488" style="mask-type:luminance" maskUnits="userSpaceOnUse" x="0" y="0" width="9" height="9">
<path d="M8.82568 0.0688477H0.825684V8.06885H8.82568V0.0688477Z" fill="white"/>
</mask>
<g mask="url(#mask0_141_28488)">
<path d="M4.57068 0.11377H4.85668L4.98968 0.13177C5.16968 0.15577 5.35368 0.16577 5.53068 0.20477C6.56346 0.415352 7.47251 1.02246 8.06268 1.89577C8.42016 2.40644 8.64929 2.99575 8.73068 3.61377C8.74968 3.75477 8.76368 3.89577 8.77968 4.03677V4.32277C8.77368 4.36677 8.76768 4.41077 8.76168 4.45477C8.73768 4.63477 8.72668 4.81777 8.68868 4.99577C8.4925 5.96214 7.94798 6.8227 7.15868 7.41377C6.61269 7.836 5.96482 8.10646 5.28068 8.19777C5.13968 8.21677 4.99768 8.23077 4.85668 8.24677H4.57068L4.43768 8.22877C4.25768 8.20477 4.07368 8.19477 3.89668 8.15577C2.8637 7.94504 1.95459 7.33753 1.36468 6.46377C1.00756 5.953 0.778773 5.3637 0.697682 4.74577C0.678682 4.60577 0.664682 4.46377 0.648682 4.32277V4.03677C0.654682 3.99277 0.660682 3.94877 0.666682 3.90477C0.690682 3.72477 0.701682 3.54177 0.739682 3.36377C0.936058 2.39828 1.48017 1.53852 2.26868 0.94777C2.81524 0.525218 3.46384 0.254739 4.14868 0.16377C4.28768 0.14377 4.42968 0.13077 4.57068 0.11377ZM4.71668 0.87177C4.06258 0.870386 3.42276 1.06301 2.87813 1.42528C2.33351 1.78755 1.90855 2.30319 1.65701 2.907C1.40546 3.5108 1.33862 4.17564 1.46494 4.81743C1.59127 5.45922 1.90508 6.04913 2.36669 6.51256C2.8283 6.97599 3.41698 7.29212 4.05827 7.42097C4.69956 7.54982 5.36465 7.48559 5.96944 7.23642C6.57423 6.98725 7.09154 6.56432 7.45595 6.02113C7.82036 5.47793 8.01549 4.83887 8.01668 4.18477C8.01826 3.75048 7.9341 3.32016 7.76903 2.91846C7.60396 2.51676 7.36122 2.1516 7.05474 1.84391C6.74826 1.53622 6.38405 1.29205 5.98301 1.1254C5.58196 0.958748 5.15197 0.872898 4.71768 0.87277" fill="#F7F7F7"/>
<path d="M6.3188 2.54687L5.7768 3.08887C5.4887 2.80831 5.10244 2.65131 4.7003 2.65131C4.29816 2.65131 3.91191 2.80831 3.6238 3.08887C3.36301 3.36145 3.20828 3.71831 3.18756 4.09498C3.16684 4.47166 3.28149 4.84333 3.5108 5.14287C3.63865 5.3001 3.7963 5.43052 3.97469 5.52666C4.15307 5.6228 4.34869 5.68277 4.55031 5.70312C4.75193 5.72347 4.95559 5.7038 5.14959 5.64524C5.34359 5.58668 5.52411 5.49038 5.6808 5.36187L6.1218 5.95087C5.68869 6.30591 5.1387 6.48658 4.57942 6.45755C4.02014 6.42851 3.49182 6.19185 3.0978 5.79387C2.67811 5.36465 2.4441 4.78757 2.4463 4.18726C2.44851 3.58695 2.68677 3.01161 3.1096 2.58548C3.53244 2.15936 4.10593 1.91667 4.7062 1.90982C5.30647 1.90297 5.88535 2.13251 6.3178 2.54887" fill="#F7F7F7"/>
</g>
</svg>
